name analog
datacolumns 19
datarows 27
range 0.0 0.013000000000000001
endheader
time	ground_force_vx	ground_force_vy	ground_force_vz	ground_force_px	ground_force_py	ground_force_pz	l_ground_force_vx	l_ground_force_vy	l_ground_force_vz	l_ground_force_px	l_ground_force_py	l_ground_force_pz	ground_torque_x	ground_torque_y	ground_torque_z	l_ground_torque_x	l_ground_torque_y	l_ground_torque_z
0.0	-0.0	-0.0	-0.0	-0.356842041015625	13.805633544921877	-334.76397705078125	-3.814563751220703	-14.396434783935549	-391.4905395507813	-0.0	-0.0	-0.0	-0.0	-0.0	-0.0	126631.6875	13102.3212890625	-4477.8603515625
0.0005	-0.0	-0.0	-0.0	-0.4555234611034393	13.646413803100586	-334.3864440917969	-3.643711566925049	-14.478216171264648	-391.4248352050781	-0.0	-0.0	-0.0	-0.0	-0.0	-0.0	126900.3203125	13098.7275390625	-4367.98095703125
0.001	-0.0	-0.0	-0.0	-0.5196724534034729	13.990357398986816	-333.0240173339844	-3.896782398223877	-14.317809104919434	-393.1702575683594	-0.0	-0.0	-0.0	-0.0	-0.0	-0.0	127166.5078125	13143.3994140625	-4424.17919921875
0.0015	-0.0	-0.0	-0.0	-0.0061842179857194	13.47413730621338	-333.40185546875	-3.7258529663085938	-14.919952392578123	-394.2428894042969	-0.0	-0.0	-0.0	-0.0	-0.0	-0.0	127393.8125	13433.4609375	-4362.74609375
0.002	-0.0	-0.0	-0.0	-0.5199967622756958	13.458690643310549	-332.6713256835937	-3.814563751220703	-14.569910049438477	-394.2172546386719	-0.0	-0.0	-0.0	-0.0	-0.0	-0.0	127449.953125	13150.3828125	-4389.244140625
0.0025	-0.0	-0.0	-0.0	-0.1814354360103607	13.62490463256836	-331.635986328125	-3.450291633605957	-14.579336166381836	-395.2643737792969	-0.0	-0.0	-0.0	-0.0	-0.0	-0.0	127903.8984375	12954.615234375	-4250.21630859375
0.003	-0.0	-0.0	-0.0	-0.0921865105628967	13.737975120544434	-331.3534545898437	-3.646456718444824	-14.323569297790527	-396.27490234375	-0.0	-0.0	-0.0	-0.0	-0.0	-0.0	128013.2890625	13386.83203125	-4130.57080078125
0.0035	-0.0	-0.0	-0.0	-0.1069078668951988	13.800477981567385	-332.3306579589844	-3.2853775024414062	-14.834978103637695	-399.05609130859375	-0.0	-0.0	-0.0	-0.0	-0.0	-0.0	128189.4375	13068.634765625	-4133.5234375
0.004	-0.0	-0.0	-0.0	-0.3626634776592254	13.378284454345703	-332.330810546875	-3.6280226707458496	-15.197382926940918	-397.6956787109375	-0.0	-0.0	-0.0	-0.0	-0.0	-0.0	128461.2265625	13107.48828125	-4189.0703125
0.0045000000000000005	-0.0	-0.0	-0.0	0.3223795890808105	13.806604385375977	-332.5931701660156	-3.796556234359741	-15.182365417480469	-397.3935852050781	-0.0	-0.0	-0.0	-0.0	-0.0	-0.0	128400.984375	13100.0361328125	-4190.189453125
0.005	-0.0	-0.0	-0.0	0.3397400379180908	13.706147193908691	-332.3085021972656	-3.2703967094421387	-15.362048149108888	-399.3591613769531	-0.0	-0.0	-0.0	-0.0	-0.0	-0.0	128485.0	13075.326171875	-4185.87255859375
0.0055	-0.0	-0.0	-0.0	0.8611786961555481	13.63976001739502	-329.5614318847656	-3.2764251232147217	-15.276727676391602	-399.394775390625	-0.0	-0.0	-0.0	-0.0	-0.0	-0.0	128742.125	12954.7041015625	-4216.5400390625
0.006	-0.0	-0.0	-0.0	0.1839663088321685	13.636951446533203	-331.9891357421875	-2.9361507892608643	-15.02622890472412	-399.4066162109375	-0.0	-0.0	-0.0	-0.0	-0.0	-0.0	128847.3515625	12695.9150390625	-4097.60400390625
0.006500000000000001	-0.0	-0.0	-0.0	-0.0782230645418167	13.550565719604492	-328.5878295898437	-3.3681328296661377	-15.003229141235352	-400.4429626464844	-0.0	-0.0	-0.0	-0.0	-0.0	-0.0	128851.1796875	13173.076171875	-4128.5458984375
0.007	-0.0	-0.0	-0.0	0.3622580766677856	13.636951446533203	-330.28759765625	-2.684030055999756	-15.114312171936035	-398.370849609375	-0.0	-0.0	-0.0	-0.0	-0.0	-0.0	129117.90625	13103.416015625	-4099.38525390625
0.0075	-0.0	-0.0	-0.0	0.4593984186649322	13.283096313476562	-330.6292419433594	-3.0273654460906982	-15.436782836914062	-399.4624938964844	-0.0	-0.0	-0.0	-0.0	-0.0	-0.0	128753.0234375	13137.3212890625	-4124.69482421875
0.008	-0.0	-0.0	-0.0	0.71368408203125	13.807289123535156	-331.2932434082031	-3.185266256332397	-15.105770111083984	-399.75677490234375	-0.0	-0.0	-0.0	-0.0	-0.0	-0.0	128871.046875	12857.8310546875	-4101.5947265625
0.0085	-0.0	-0.0	-0.0	0.3698643445968628	13.374764442443848	-330.9605712890625	-3.0243728160858154	-15.111178398132324	-400.49847412109375	-0.0	-0.0	-0.0	-0.0	-0.0	-0.0	129115.4609375	12905.103515625	-4124.7177734375
0.009000000000000001	-0.0	-0.0	-0.0	0.9787499904632568	13.996036529541016	-330.6170349121094	-3.185497999191284	-15.282336235046388	-400.1595764160156	-0.0	-0.0	-0.0	-0.0	-0.0	-0.0	128942.859375	13014.2470703125	-4069.21875
0.0095	-0.0	-0.0	-0.0	0.5530390739440918	14.067380905151367	-332.6251220703125	-3.088853359222412	-14.93966007232666	-398.773193359375	-0.0	-0.0	-0.0	-0.0	-0.0	-0.0	129056.9140625	12971.5751953125	-3978.293701171875
0.01	-0.0	-0.0	-0.0	0.6144712567329407	13.448697090148926	-330.2529602050781	-2.8361129760742188	-15.448433876037598	-398.7829284667969	-0.0	-0.0	-0.0	-0.0	-0.0	-0.0	129020.90625	13084.4853515625	-3806.45849609375
0.0105	-0.0	-0.0	-0.0	0.9813156127929688	13.892045021057127	-331.28277587890625	-3.167654037475586	-14.934110641479492	-398.4126281738281	-0.0	-0.0	-0.0	-0.0	-0.0	-0.0	128861.984375	12900.1455078125	-3890.30078125
0.011	-0.0	-0.0	-0.0	0.9788923859596252	13.376823425292969	-332.637939453125	-2.7398135662078857	-15.365428924560549	-400.4367065429688	-0.0	-0.0	-0.0	-0.0	-0.0	-0.0	129073.7578125	13196.7216796875	-3952.87744140625
0.0115	-0.0	-0.0	-0.0	0.6220765113830566	13.287614822387695	-329.8985290527344	-2.31912612915039	-15.796991348266602	-400.0779724121094	-0.0	-0.0	-0.0	-0.0	-0.0	-0.0	128969.1171875	12959.0556640625	-4064.560791015625
0.012	-0.0	-0.0	-0.0	1.2442306280136108	13.44926643371582	-329.90740966796875	-2.676266670227051	-15.107967376708984	-398.750732421875	-0.0	-0.0	-0.0	-0.0	-0.0	-0.0	128796.171875	12924.0693359375	-3862.89892578125
0.0125	-0.0	-0.0	-0.0	0.7183228731155396	13.104486465454102	-329.5811767578125	-2.5701608657836914	-15.961813926696776	-400.0891418457031	-0.0	-0.0	-0.0	-0.0	-0.0	-0.0	129165.3125	12930.3017578125	-3891.871337890625
0.013000000000000001	-0.0	-0.0	-0.0	1.2512447834014893	13.006152153015137	-331.6268920898437	-2.572612762451172	-15.618420600891112	-399.0516357421875	-0.0	-0.0	-0.0	-0.0	-0.0	-0.0	129019.046875	12992.8701171875	-3980.7783203125
